<svg xmlns="http://www.w3.org/2000/svg" width="93.249" height="20" viewBox="0 0 93.249 20"><g transform="translate(-3 -38)"><text transform="translate(3 54)" fill="#1e272e" font-size="20" font-family="Lato-Bold, Lato" font-weight="700"><tspan x="0" y="0">Shopeo</tspan></text><g transform="translate(74 -79)"><path d="M19.17,125.193a39.726,39.726,0,0,1-7.64-4.084.652.652,0,0,0-.362-.11H8.474a.652.652,0,0,0-.652.652v1.3a.653.653,0,0,1-.652.652H4.563a.653.653,0,0,1-.652-.652A1.958,1.958,0,0,0,1.955,121H.652a.652.652,0,0,0-.652.652v10.429a.652.652,0,0,0,.652.652H21.6a.652.652,0,0,0,.652-.652v-3.449C22.249,125.844,19.481,125.406,19.17,125.193ZM1.955,122.3a.653.653,0,0,1,.652.652,1.958,1.958,0,0,0,1.955,1.955H7.17a1.958,1.958,0,0,0,1.955-1.955V122.3h1.845c.223.148.417.28.741.49l-1,1a.652.652,0,0,0,.922.922l1.218-1.218q.648.39,1.311.756l-.844.844a.652.652,0,0,0,.922.922l1.127-1.127q.69.351,1.392.675l-.833.833a.652.652,0,0,0,.922.922l1.191-1.191c.594.25.756.308,1.681.68a1.946,1.946,0,0,1,1.229,1.816v.19H5.149a3.265,3.265,0,0,0-3.194-2.607H1.3V122.3ZM1.3,127.518h.652a1.959,1.959,0,0,1,1.843,1.3H1.3Zm0,3.911v-1.3H20.946v1.3Z" fill="#1e272e"/></g></g></svg>